<?xml version="1.0"?>
<svg id="Capa_1" xmlns="http://www.w3.org/2000/svg" version="1.1" viewBox="0 0 509.62 51.15">
  
  <defs>
    
  </defs>
  <g class="st1">
    <text class="st3" transform="translate(437.24 16.11)"><tspan x="0" y="0">Agencia del</tspan></text>
    <text class="st3" transform="translate(440.82 25.46)"><tspan x="0" y="0">año WINA.</tspan></text>
  </g>
  <g>
    <path class="st5" d="M420.5,30.2c1.23-1.12,2.32-3.64,1.51-6.11-2.29,1.43-2.28,4.45-1.51,6.11Z"></path>
    <path class="st5" d="M421.65,19.94c-.97.33-3.3,2.48-2.39,5.74,1.46-1.21,2.87-3.52,2.39-5.74Z"></path>
    <path class="st5" d="M429.96,0c-3.99,1.3-5.45,3.22-6.11,6.23,1.72-.49,4.35-3.13,6.11-6.23Z"></path>
    <path class="st5" d="M421.89,15.96c-1.82.09-3.08,2.81-2.99,4.63,1.61-.79,3.13-2.02,2.99-4.63Z"></path>
    <path class="st5" d="M423.34,12.61c-.99-.16-3.4.65-3.95,3.37,1.52-.3,3.78-1.43,3.95-3.37Z"></path>
    <path class="st5" d="M425.2,8.97c-.71-.15-3.26.37-4.33,3.15,1.51-.04,3.57-.56,4.33-3.15Z"></path>
    <path class="st5" d="M422.66,8.64c1.36.08,4.12-1.15,4.73-3.02-1.28-.26-3.76,1.04-4.73,3.02Z"></path>
    <path class="st5" d="M420.53,30.77c-.82-2.44-3.15-4.43-4.67-4.58.16,3.77,3.11,4.66,4.67,4.58Z"></path>
    <path class="st5" d="M422.61,34.29c.92-1.36,1.66-4.15.2-5.52-.83.57-2.1,2.77-.2,5.52Z"></path>
    <path class="st5" d="M422.95,35.07c-.87-1.24-3.28-3.59-5.58-3.63,1.29,3.65,4.68,3.85,5.58,3.63Z"></path>
    <path class="st5" d="M425.41,37.84c.65-1.54.89-3.86-.99-5.45-.66.67-1.51,3,.99,5.45Z"></path>
    <path class="st5" d="M425.82,38.52c-1.12-1.07-4.49-3.42-6.73-2.99,1.94,3.83,5.91,3.35,6.73,2.99Z"></path>
    <path class="st5" d="M429.35,41.18c.62-2.08-.86-3.95-2.19-5.11-1.13,1.8.22,3.87,2.19,5.11Z"></path>
    <path class="st5" d="M423.34,39.37c3.07,3.56,5.38,2.97,5.87,2.07-1.31-.85-4.48-2.78-5.87-2.07Z"></path>
    <path class="st5" d="M415.95,20.75c-1.85,3.13,1.57,4.72,3.12,5.58-.13-.94-1.56-4.82-3.12-5.58Z"></path>
    <path class="st5" d="M416.57,15.38c-1.5,2.55-.03,5.02,2.09,6.09.04-1.6-.36-4.88-2.09-6.09Z"></path>
    <path class="st5" d="M419.04,16.59c.31-1.28.96-3.49-.34-5.43-1.94,1.98-.77,4.64.34,5.43Z"></path>
    <path class="st5" d="M420.45,12.59c.56-1.27,1.08-4.11.12-5.11-2.47,2.37-.8,4.46-.12,5.11Z"></path>
    <path class="st5" d="M422,9.41c.68-1.07,2.19-3.61,1.51-5.93-2.92,2.95-1.94,5.34-1.51,5.93Z"></path>
  </g>
  <g>
    <path class="st5" d="M504.54,30.2c-1.23-1.12-2.32-3.64-1.51-6.11,2.29,1.43,2.28,4.45,1.51,6.11Z"></path>
    <path class="st5" d="M503.39,19.94c.97.33,3.3,2.48,2.39,5.74-1.46-1.21-2.87-3.52-2.39-5.74Z"></path>
    <path class="st5" d="M495.07,0c3.99,1.3,5.45,3.22,6.11,6.23-1.72-.49-4.35-3.13-6.11-6.23Z"></path>
    <path class="st5" d="M503.15,15.96c1.82.09,3.08,2.81,2.99,4.63-1.61-.79-3.13-2.02-2.99-4.63Z"></path>
    <path class="st5" d="M501.69,12.61c.99-.16,3.4.65,3.95,3.37-1.52-.3-3.78-1.43-3.95-3.37Z"></path>
    <path class="st5" d="M499.83,8.97c.71-.15,3.26.37,4.33,3.15-1.51-.04-3.57-.56-4.33-3.15Z"></path>
    <path class="st5" d="M502.37,8.64c-1.36.08-4.12-1.15-4.73-3.02,1.28-.26,3.76,1.04,4.73,3.02Z"></path>
    <path class="st5" d="M504.51,30.77c.82-2.44,3.15-4.43,4.67-4.58-.16,3.77-3.11,4.66-4.67,4.58Z"></path>
    <path class="st5" d="M502.43,34.29c-.92-1.36-1.66-4.15-.2-5.52.83.57,2.1,2.77.2,5.52Z"></path>
    <path class="st5" d="M502.09,35.07c.87-1.24,3.28-3.59,5.58-3.63-1.29,3.65-4.68,3.85-5.58,3.63Z"></path>
    <path class="st5" d="M499.63,37.84c-.65-1.54-.89-3.86.99-5.45.66.67,1.51,3-.99,5.45Z"></path>
    <path class="st5" d="M499.22,38.52c1.12-1.07,4.49-3.42,6.73-2.99-1.94,3.83-5.91,3.35-6.73,2.99Z"></path>
    <path class="st5" d="M495.68,41.18c-.62-2.08.86-3.95,2.19-5.11,1.13,1.8-.22,3.87-2.19,5.11Z"></path>
    <path class="st5" d="M501.7,39.37c-3.07,3.56-5.38,2.97-5.87,2.07,1.31-.85,4.48-2.78,5.87-2.07Z"></path>
    <path class="st5" d="M509.08,20.75c1.85,3.13-1.57,4.72-3.12,5.58.13-.94,1.56-4.82,3.12-5.58Z"></path>
    <path class="st5" d="M508.47,15.38c1.5,2.55.03,5.02-2.09,6.09-.04-1.6.36-4.88,2.09-6.09Z"></path>
    <path class="st5" d="M506,16.59c-.31-1.28-.96-3.49.34-5.43,1.94,1.98.77,4.64-.34,5.43Z"></path>
    <path class="st5" d="M504.59,12.59c-.56-1.27-1.08-4.11-.12-5.11,2.47,2.37.8,4.46.12,5.11Z"></path>
    <path class="st5" d="M503.03,9.41c-.68-1.07-2.19-3.61-1.51-5.93,2.92,2.95,1.94,5.34,1.51,5.93Z"></path>
  </g>
  <text class="st2" transform="translate(443.52 49)"><tspan x="0" y="0">Wina 2026</tspan></text>
  <g>
    <g class="st1">
      <text class="st3" transform="translate(17.5 16.11)"><tspan x="0" y="0">Top 3 </tspan></text>
      <text class="st0" transform="translate(42.61 16.11)"><tspan x="0" y="0">Agencia</tspan></text>
      <text class="st0" transform="translate(16.87 25.46)"><tspan x="0" y="0">Independiente</tspan></text>
      <text class="st0" transform="translate(17.96 34.8)"><tspan x="0" y="0">Iberoamérica</tspan></text>
      <text class="st3" transform="translate(74.84 34.8)"><tspan x="0" y="0">.</tspan></text>
    </g>
    <g>
      <path class="st5" d="M5.08,30.2c1.23-1.12,2.32-3.64,1.51-6.11-2.29,1.43-2.28,4.45-1.51,6.11Z"></path>
      <path class="st5" d="M6.23,19.94c-.97.33-3.3,2.48-2.39,5.74,1.46-1.21,2.87-3.52,2.39-5.74Z"></path>
      <path class="st5" d="M14.54,0c-3.99,1.3-5.45,3.22-6.11,6.23,1.72-.49,4.35-3.13,6.11-6.23Z"></path>
      <path class="st5" d="M6.47,15.96c-1.82.09-3.08,2.81-2.99,4.63,1.61-.79,3.13-2.02,2.99-4.63Z"></path>
      <path class="st5" d="M7.92,12.61c-.99-.16-3.4.65-3.95,3.37,1.52-.3,3.78-1.43,3.95-3.37Z"></path>
      <path class="st5" d="M9.78,8.97c-.71-.15-3.26.37-4.33,3.15,1.51-.04,3.57-.56,4.33-3.15Z"></path>
      <path class="st5" d="M7.24,8.64c1.36.08,4.12-1.15,4.73-3.02-1.28-.26-3.76,1.04-4.73,3.02Z"></path>
      <path class="st5" d="M5.11,30.77c-.82-2.44-3.15-4.43-4.67-4.58.16,3.77,3.11,4.66,4.67,4.58Z"></path>
      <path class="st5" d="M7.19,34.29c.92-1.36,1.66-4.15.2-5.52-.83.57-2.1,2.77-.2,5.52Z"></path>
      <path class="st5" d="M7.53,35.07c-.87-1.24-3.28-3.59-5.58-3.63,1.29,3.65,4.68,3.85,5.58,3.63Z"></path>
      <path class="st5" d="M9.99,37.84c.65-1.54.89-3.86-.99-5.45-.66.67-1.51,3,.99,5.45Z"></path>
      <path class="st5" d="M10.4,38.52c-1.12-1.07-4.49-3.42-6.73-2.99,1.94,3.83,5.91,3.35,6.73,2.99Z"></path>
      <path class="st5" d="M13.93,41.18c.62-2.08-.86-3.95-2.19-5.11-1.13,1.8.22,3.87,2.19,5.11Z"></path>
      <path class="st5" d="M7.92,39.37c3.07,3.56,5.38,2.97,5.87,2.07-1.31-.85-4.48-2.78-5.87-2.07Z"></path>
      <path class="st5" d="M.53,20.75c-1.85,3.13,1.57,4.72,3.12,5.58-.13-.94-1.56-4.82-3.12-5.58Z"></path>
      <path class="st5" d="M1.15,15.39c-1.5,2.55-.03,5.02,2.09,6.09.04-1.6-.36-4.88-2.09-6.09Z"></path>
      <path class="st5" d="M3.62,16.59c.31-1.28.96-3.49-.34-5.43-1.94,1.98-.77,4.64.34,5.43Z"></path>
      <path class="st5" d="M5.03,12.59c.56-1.27,1.08-4.11.12-5.11-2.47,2.37-.8,4.46-.12,5.11Z"></path>
      <path class="st5" d="M6.59,9.41c.68-1.07,2.19-3.61,1.51-5.93-2.92,2.95-1.94,5.34-1.51,5.93Z"></path>
    </g>
    <g>
      <path class="st5" d="M89.12,30.2c-1.23-1.12-2.32-3.64-1.51-6.11,2.29,1.43,2.28,4.45,1.51,6.11Z"></path>
      <path class="st5" d="M87.97,19.94c.97.33,3.3,2.48,2.39,5.74-1.46-1.21-2.87-3.52-2.39-5.74Z"></path>
      <path class="st5" d="M79.66,0c3.99,1.3,5.45,3.22,6.11,6.23-1.72-.49-4.35-3.13-6.11-6.23Z"></path>
      <path class="st5" d="M87.73,15.96c1.82.09,3.08,2.81,2.99,4.63-1.61-.79-3.13-2.02-2.99-4.63Z"></path>
      <path class="st5" d="M86.28,12.61c.99-.16,3.4.65,3.95,3.37-1.52-.3-3.78-1.43-3.95-3.37Z"></path>
      <path class="st5" d="M84.42,8.97c.71-.15,3.26.37,4.33,3.15-1.51-.04-3.57-.56-4.33-3.15Z"></path>
      <path class="st5" d="M86.96,8.64c-1.36.08-4.12-1.15-4.73-3.02,1.28-.26,3.76,1.04,4.73,3.02Z"></path>
      <path class="st5" d="M89.09,30.77c.82-2.44,3.15-4.43,4.67-4.58-.16,3.77-3.11,4.66-4.67,4.58Z"></path>
      <path class="st5" d="M87.01,34.29c-.92-1.36-1.66-4.15-.2-5.52.83.57,2.1,2.77.2,5.52Z"></path>
      <path class="st5" d="M86.67,35.07c.87-1.24,3.28-3.59,5.58-3.63-1.29,3.65-4.68,3.85-5.58,3.63Z"></path>
      <path class="st5" d="M84.21,37.84c-.65-1.54-.89-3.86.99-5.45.66.67,1.51,3-.99,5.45Z"></path>
      <path class="st5" d="M83.8,38.52c1.12-1.07,4.49-3.42,6.73-2.99-1.94,3.83-5.91,3.35-6.73,2.99Z"></path>
      <path class="st5" d="M80.26,41.18c-.62-2.08.86-3.95,2.19-5.11,1.13,1.8-.22,3.87-2.19,5.11Z"></path>
      <path class="st5" d="M86.28,39.37c-3.07,3.56-5.38,2.97-5.87,2.07,1.31-.85,4.48-2.78,5.87-2.07Z"></path>
      <path class="st5" d="M93.67,20.75c1.85,3.13-1.57,4.72-3.12,5.58.13-.94,1.56-4.82,3.12-5.58Z"></path>
      <path class="st5" d="M93.05,15.39c1.5,2.55.03,5.02-2.09,6.09-.04-1.6.36-4.88,2.09-6.09Z"></path>
      <path class="st5" d="M90.58,16.59c-.31-1.28-.96-3.49.34-5.43,1.94,1.98.77,4.64-.34,5.43Z"></path>
      <path class="st5" d="M89.17,12.59c-.56-1.27-1.08-4.11-.12-5.11,2.47,2.37.8,4.46.12,5.11Z"></path>
      <path class="st5" d="M87.61,9.41c-.68-1.07-2.19-3.61-1.51-5.93,2.92,2.95,1.94,5.34,1.51,5.93Z"></path>
    </g>
    <g class="st1">
      <text class="st4" transform="translate(28.24 49)"><tspan x="0" y="0">F</tspan></text>
      <text class="st2" transform="translate(32.54 49)"><tspan x="0" y="0">ePI 2020</tspan></text>
    </g>
  </g>
  <g>
    <g class="st1">
      <text class="st3" transform="translate(118.06 16.11)"><tspan x="0" y="0">Top 9 </tspan></text>
      <text class="st0" transform="translate(143.51 16.11)"><tspan x="0" y="0">Agencia</tspan></text>
      <text class="st0" transform="translate(117.6 25.46)"><tspan x="0" y="0">Independiente</tspan></text>
      <text class="st0" transform="translate(118.69 34.8)"><tspan x="0" y="0">Iberoamérica</tspan></text>
      <text class="st3" transform="translate(175.57 34.8)"><tspan x="0" y="0">.</tspan></text>
    </g>
    <g>
      <path class="st5" d="M105.81,30.2c1.23-1.12,2.32-3.64,1.51-6.11-2.29,1.43-2.28,4.45-1.51,6.11Z"></path>
      <path class="st5" d="M106.95,19.94c-.97.33-3.3,2.48-2.39,5.74,1.46-1.21,2.87-3.52,2.39-5.74Z"></path>
      <path class="st5" d="M115.27,0c-3.99,1.3-5.45,3.22-6.11,6.23,1.72-.49,4.35-3.13,6.11-6.23Z"></path>
      <path class="st5" d="M107.2,15.96c-1.82.09-3.08,2.81-2.99,4.63,1.61-.79,3.13-2.02,2.99-4.63Z"></path>
      <path class="st5" d="M108.65,12.61c-.99-.16-3.4.65-3.95,3.37,1.52-.3,3.78-1.43,3.95-3.37Z"></path>
      <path class="st5" d="M110.51,8.97c-.71-.15-3.26.37-4.33,3.15,1.51-.04,3.57-.56,4.33-3.15Z"></path>
      <path class="st5" d="M107.97,8.64c1.36.08,4.12-1.15,4.73-3.02-1.28-.26-3.76,1.04-4.73,3.02Z"></path>
      <path class="st5" d="M105.83,30.77c-.82-2.44-3.15-4.43-4.67-4.58.16,3.77,3.11,4.66,4.67,4.58Z"></path>
      <path class="st5" d="M107.91,34.29c.92-1.36,1.66-4.15.2-5.52-.83.57-2.1,2.77-.2,5.52Z"></path>
      <path class="st5" d="M108.25,35.07c-.87-1.24-3.28-3.59-5.58-3.63,1.29,3.65,4.68,3.85,5.58,3.63Z"></path>
      <path class="st5" d="M110.72,37.84c.65-1.54.89-3.86-.99-5.45-.66.67-1.51,3,.99,5.45Z"></path>
      <path class="st5" d="M111.12,38.52c-1.12-1.07-4.49-3.42-6.73-2.99,1.94,3.83,5.91,3.35,6.73,2.99Z"></path>
      <path class="st5" d="M114.66,41.18c.62-2.08-.86-3.95-2.19-5.11-1.13,1.8.22,3.87,2.19,5.11Z"></path>
      <path class="st5" d="M108.64,39.37c3.07,3.56,5.38,2.97,5.87,2.07-1.31-.85-4.48-2.78-5.87-2.07Z"></path>
      <path class="st5" d="M101.26,20.75c-1.85,3.13,1.57,4.72,3.12,5.58-.13-.94-1.56-4.82-3.12-5.58Z"></path>
      <path class="st5" d="M101.87,15.38c-1.5,2.55-.03,5.02,2.09,6.09.04-1.6-.36-4.88-2.09-6.09Z"></path>
      <path class="st5" d="M104.35,16.59c.31-1.28.96-3.49-.34-5.43-1.94,1.98-.77,4.64.34,5.43Z"></path>
      <path class="st5" d="M105.76,12.59c.56-1.27,1.08-4.11.12-5.11-2.47,2.37-.8,4.46-.12,5.11Z"></path>
      <path class="st5" d="M107.31,9.41c.68-1.07,2.19-3.61,1.51-5.93-2.92,2.95-1.94,5.34-1.51,5.93Z"></path>
    </g>
    <g>
      <path class="st5" d="M189.84,30.2c-1.23-1.12-2.32-3.64-1.51-6.11,2.29,1.43,2.28,4.45,1.51,6.11Z"></path>
      <path class="st5" d="M188.7,19.94c.97.33,3.3,2.48,2.39,5.74-1.46-1.21-2.87-3.52-2.39-5.74Z"></path>
      <path class="st5" d="M180.38,0c3.99,1.3,5.45,3.22,6.11,6.23-1.72-.49-4.35-3.13-6.11-6.23Z"></path>
      <path class="st5" d="M188.45,15.96c1.82.09,3.08,2.81,2.99,4.63-1.61-.79-3.13-2.02-2.99-4.63Z"></path>
      <path class="st5" d="M187,12.61c.99-.16,3.4.65,3.95,3.37-1.52-.3-3.78-1.43-3.95-3.37Z"></path>
      <path class="st5" d="M185.14,8.97c.71-.15,3.26.37,4.33,3.15-1.51-.04-3.57-.56-4.33-3.15Z"></path>
      <path class="st5" d="M187.68,8.64c-1.36.08-4.12-1.15-4.73-3.02,1.28-.26,3.76,1.04,4.73,3.02Z"></path>
      <path class="st5" d="M189.82,30.77c.82-2.44,3.15-4.43,4.67-4.58-.16,3.77-3.11,4.66-4.67,4.58Z"></path>
      <path class="st5" d="M187.73,34.29c-.92-1.36-1.66-4.15-.2-5.52.83.57,2.1,2.77.2,5.52Z"></path>
      <path class="st5" d="M187.39,35.07c.87-1.24,3.28-3.59,5.58-3.63-1.29,3.65-4.68,3.85-5.58,3.63Z"></path>
      <path class="st5" d="M184.93,37.84c-.65-1.54-.89-3.86.99-5.45.66.67,1.51,3-.99,5.45Z"></path>
      <path class="st5" d="M184.52,38.52c1.12-1.07,4.49-3.42,6.73-2.99-1.94,3.83-5.91,3.35-6.73,2.99Z"></path>
      <path class="st5" d="M180.99,41.18c-.62-2.08.86-3.95,2.19-5.11,1.13,1.8-.22,3.87-2.19,5.11Z"></path>
      <path class="st5" d="M187,39.37c-3.07,3.56-5.38,2.97-5.87,2.07,1.31-.85,4.48-2.78,5.87-2.07Z"></path>
      <path class="st5" d="M194.39,20.75c1.85,3.13-1.57,4.72-3.12,5.58.13-.94,1.56-4.82,3.12-5.58Z"></path>
      <path class="st5" d="M193.78,15.38c1.5,2.55.03,5.02-2.09,6.09-.04-1.6.36-4.88,2.09-6.09Z"></path>
      <path class="st5" d="M191.3,16.59c-.31-1.28-.96-3.49.34-5.43,1.94,1.98.77,4.64-.34,5.43Z"></path>
      <path class="st5" d="M189.89,12.59c-.56-1.27-1.08-4.11-.12-5.11,2.47,2.37.8,4.46.12,5.11Z"></path>
      <path class="st5" d="M188.34,9.41c-.68-1.07-2.19-3.61-1.51-5.93,2.92,2.95,1.94,5.34,1.51,5.93Z"></path>
    </g>
    <g class="st1">
      <text class="st4" transform="translate(128.96 49)"><tspan x="0" y="0">F</tspan></text>
      <text class="st2" transform="translate(133.26 49)"><tspan x="0" y="0">ePI 2021</tspan></text>
    </g>
  </g>
  <g>
    <g class="st1">
      <text class="st3" transform="translate(225.29 16.11)"><tspan x="0" y="0">Top 5 </tspan></text>
      <text class="st0" transform="translate(250.77 16.11)"><tspan x="0" y="0">Agencia</tspan></text>
      <text class="st0" transform="translate(224.85 25.46)"><tspan x="0" y="0">Independiente</tspan></text>
      <text class="st0" transform="translate(225.94 34.8)"><tspan x="0" y="0">Iberoamérica</tspan></text>
      <text class="st3" transform="translate(282.82 34.8)"><tspan x="0" y="0">.</tspan></text>
    </g>
    <g>
      <path class="st5" d="M213.05,30.2c1.23-1.12,2.32-3.64,1.51-6.11-2.29,1.43-2.28,4.45-1.51,6.11Z"></path>
      <path class="st5" d="M214.2,19.94c-.97.33-3.3,2.48-2.39,5.74,1.46-1.21,2.87-3.52,2.39-5.74Z"></path>
      <path class="st5" d="M222.52,0c-3.99,1.3-5.45,3.22-6.11,6.23,1.72-.49,4.35-3.13,6.11-6.23Z"></path>
      <path class="st5" d="M214.45,15.96c-1.82.09-3.08,2.81-2.99,4.63,1.61-.79,3.13-2.02,2.99-4.63Z"></path>
      <path class="st5" d="M215.9,12.61c-.99-.16-3.4.65-3.95,3.37,1.52-.3,3.78-1.43,3.95-3.37Z"></path>
      <path class="st5" d="M217.76,8.97c-.71-.15-3.26.37-4.33,3.15,1.51-.04,3.57-.56,4.33-3.15Z"></path>
      <path class="st5" d="M215.22,8.64c1.36.08,4.12-1.15,4.73-3.02-1.28-.26-3.76,1.04-4.73,3.02Z"></path>
      <path class="st5" d="M213.08,30.77c-.82-2.44-3.15-4.43-4.67-4.58.16,3.77,3.11,4.66,4.67,4.58Z"></path>
      <path class="st5" d="M215.16,34.29c.92-1.36,1.66-4.15.2-5.52-.83.57-2.1,2.77-.2,5.52Z"></path>
      <path class="st5" d="M215.5,35.07c-.87-1.24-3.28-3.59-5.58-3.63,1.29,3.65,4.68,3.85,5.58,3.63Z"></path>
      <path class="st5" d="M217.97,37.84c.65-1.54.89-3.86-.99-5.45-.66.67-1.51,3,.99,5.45Z"></path>
      <path class="st5" d="M218.37,38.52c-1.12-1.07-4.49-3.42-6.73-2.99,1.94,3.83,5.91,3.35,6.73,2.99Z"></path>
      <path class="st5" d="M221.91,41.18c.62-2.08-.86-3.95-2.19-5.11-1.13,1.8.22,3.87,2.19,5.11Z"></path>
      <path class="st5" d="M215.89,39.37c3.07,3.56,5.38,2.97,5.87,2.07-1.31-.85-4.48-2.78-5.87-2.07Z"></path>
      <path class="st5" d="M208.51,20.75c-1.85,3.13,1.57,4.72,3.12,5.58-.13-.94-1.56-4.82-3.12-5.58Z"></path>
      <path class="st5" d="M209.12,15.38c-1.5,2.55-.03,5.02,2.09,6.09.04-1.6-.36-4.88-2.09-6.09Z"></path>
      <path class="st5" d="M211.6,16.59c.31-1.28.96-3.49-.34-5.43-1.94,1.98-.77,4.64.34,5.43Z"></path>
      <path class="st5" d="M213.01,12.59c.56-1.27,1.08-4.11.12-5.11-2.47,2.37-.8,4.46-.12,5.11Z"></path>
      <path class="st5" d="M214.56,9.41c.68-1.07,2.19-3.61,1.51-5.93-2.92,2.95-1.94,5.34-1.51,5.93Z"></path>
    </g>
    <g>
      <path class="st5" d="M297.09,30.2c-1.23-1.12-2.32-3.64-1.51-6.11,2.29,1.43,2.28,4.45,1.51,6.11Z"></path>
      <path class="st5" d="M295.94,19.94c.97.33,3.3,2.48,2.39,5.74-1.46-1.21-2.87-3.52-2.39-5.74Z"></path>
      <path class="st5" d="M287.63,0c3.99,1.3,5.45,3.22,6.11,6.23-1.72-.49-4.35-3.13-6.11-6.23Z"></path>
      <path class="st5" d="M295.7,15.96c1.82.09,3.08,2.81,2.99,4.63-1.61-.79-3.13-2.02-2.99-4.63Z"></path>
      <path class="st5" d="M294.25,12.61c.99-.16,3.4.65,3.95,3.37-1.52-.3-3.78-1.43-3.95-3.37Z"></path>
      <path class="st5" d="M292.39,8.97c.71-.15,3.26.37,4.33,3.15-1.51-.04-3.57-.56-4.33-3.15Z"></path>
      <path class="st5" d="M294.93,8.64c-1.36.08-4.12-1.15-4.73-3.02,1.28-.26,3.76,1.04,4.73,3.02Z"></path>
      <path class="st5" d="M297.06,30.77c.82-2.44,3.15-4.43,4.67-4.58-.16,3.77-3.11,4.66-4.67,4.58Z"></path>
      <path class="st5" d="M294.98,34.29c-.92-1.36-1.66-4.15-.2-5.52.83.57,2.1,2.77.2,5.52Z"></path>
      <path class="st5" d="M294.64,35.07c.87-1.24,3.28-3.59,5.58-3.63-1.29,3.65-4.68,3.85-5.58,3.63Z"></path>
      <path class="st5" d="M292.18,37.84c-.65-1.54-.89-3.86.99-5.45.66.67,1.51,3-.99,5.45Z"></path>
      <path class="st5" d="M291.77,38.52c1.12-1.07,4.49-3.42,6.73-2.99-1.94,3.83-5.91,3.35-6.73,2.99Z"></path>
      <path class="st5" d="M288.24,41.18c-.62-2.08.86-3.95,2.19-5.11,1.13,1.8-.22,3.87-2.19,5.11Z"></path>
      <path class="st5" d="M294.25,39.37c-3.07,3.56-5.38,2.97-5.87,2.07,1.31-.85,4.48-2.78,5.87-2.07Z"></path>
      <path class="st5" d="M301.64,20.75c1.85,3.13-1.57,4.72-3.12,5.58.13-.94,1.56-4.82,3.12-5.58Z"></path>
      <path class="st5" d="M301.02,15.38c1.5,2.55.03,5.02-2.09,6.09-.04-1.6.36-4.88,2.09-6.09Z"></path>
      <path class="st5" d="M298.55,16.59c-.31-1.28-.96-3.49.34-5.43,1.94,1.98.77,4.64-.34,5.43Z"></path>
      <path class="st5" d="M297.14,12.59c-.56-1.27-1.08-4.11-.12-5.11,2.47,2.37.8,4.46.12,5.11Z"></path>
      <path class="st5" d="M295.59,9.41c-.68-1.07-2.19-3.61-1.51-5.93,2.92,2.95,1.94,5.34,1.51,5.93Z"></path>
    </g>
    <g class="st1">
      <text class="st4" transform="translate(236.21 49)"><tspan x="0" y="0">F</tspan></text>
      <text class="st2" transform="translate(240.51 49)"><tspan x="0" y="0">ePI 2021</tspan></text>
    </g>
  </g>
  <g>
    <g class="st1">
      <text class="st3" transform="translate(328.49 16.11)"><tspan x="0" y="0">Top 11 </tspan></text>
      <text class="st0" transform="translate(354.49 16.11)"><tspan x="0" y="0">Agencia</tspan></text>
      <text class="st0" transform="translate(328.3 25.46)"><tspan x="0" y="0">Independiente</tspan></text>
      <text class="st0" transform="translate(329.39 34.8)"><tspan x="0" y="0">Iberoamérica</tspan></text>
      <text class="st3" transform="translate(386.27 34.8)"><tspan x="0" y="0">.</tspan></text>
    </g>
    <g>
      <path class="st5" d="M316.51,30.2c1.23-1.12,2.32-3.64,1.51-6.11-2.29,1.43-2.28,4.45-1.51,6.11Z"></path>
      <path class="st5" d="M317.66,19.94c-.97.33-3.3,2.48-2.39,5.74,1.46-1.21,2.87-3.52,2.39-5.74Z"></path>
      <path class="st5" d="M325.98,0c-3.99,1.3-5.45,3.22-6.11,6.23,1.72-.49,4.35-3.13,6.11-6.23Z"></path>
      <path class="st5" d="M317.9,15.96c-1.82.09-3.08,2.81-2.99,4.63,1.61-.79,3.13-2.02,2.99-4.63Z"></path>
      <path class="st5" d="M319.36,12.61c-.99-.16-3.4.65-3.95,3.37,1.52-.3,3.78-1.43,3.95-3.37Z"></path>
      <path class="st5" d="M321.22,8.97c-.71-.15-3.26.37-4.33,3.15,1.51-.04,3.57-.56,4.33-3.15Z"></path>
      <path class="st5" d="M318.68,8.64c1.36.08,4.12-1.15,4.73-3.02-1.28-.26-3.76,1.04-4.73,3.02Z"></path>
      <path class="st5" d="M316.54,30.77c-.82-2.44-3.15-4.43-4.67-4.58.16,3.77,3.11,4.66,4.67,4.58Z"></path>
      <path class="st5" d="M318.62,34.29c.92-1.36,1.66-4.15.2-5.52-.83.57-2.1,2.77-.2,5.52Z"></path>
      <path class="st5" d="M318.96,35.07c-.87-1.24-3.28-3.59-5.58-3.63,1.29,3.65,4.68,3.85,5.58,3.63Z"></path>
      <path class="st5" d="M321.42,37.84c.65-1.54.89-3.86-.99-5.45-.66.67-1.51,3,.99,5.45Z"></path>
      <path class="st5" d="M321.83,38.52c-1.12-1.07-4.49-3.42-6.73-2.99,1.94,3.83,5.91,3.35,6.73,2.99Z"></path>
      <path class="st5" d="M325.37,41.18c.62-2.08-.86-3.95-2.19-5.11-1.13,1.8.22,3.87,2.19,5.11Z"></path>
      <path class="st5" d="M319.35,39.37c3.07,3.56,5.38,2.97,5.87,2.07-1.31-.85-4.48-2.78-5.87-2.07Z"></path>
      <path class="st5" d="M311.96,20.75c-1.85,3.13,1.57,4.72,3.12,5.58-.13-.94-1.56-4.82-3.12-5.58Z"></path>
      <path class="st5" d="M312.58,15.38c-1.5,2.55-.03,5.02,2.09,6.09.04-1.6-.36-4.88-2.09-6.09Z"></path>
      <path class="st5" d="M315.05,16.59c.31-1.28.96-3.49-.34-5.43-1.94,1.98-.77,4.64.34,5.43Z"></path>
      <path class="st5" d="M316.46,12.59c.56-1.27,1.08-4.11.12-5.11-2.47,2.37-.8,4.46-.12,5.11Z"></path>
      <path class="st5" d="M318.02,9.41c.68-1.07,2.19-3.61,1.51-5.93-2.92,2.95-1.94,5.34-1.51,5.93Z"></path>
    </g>
    <g>
      <path class="st5" d="M400.55,30.2c-1.23-1.12-2.32-3.64-1.51-6.11,2.29,1.43,2.28,4.45,1.51,6.11Z"></path>
      <path class="st5" d="M399.4,19.94c.97.33,3.3,2.48,2.39,5.74-1.46-1.21-2.87-3.52-2.39-5.74Z"></path>
      <path class="st5" d="M391.09,0c3.99,1.3,5.45,3.22,6.11,6.23-1.72-.49-4.35-3.13-6.11-6.23Z"></path>
      <path class="st5" d="M399.16,15.96c1.82.09,3.08,2.81,2.99,4.63-1.61-.79-3.13-2.02-2.99-4.63Z"></path>
      <path class="st5" d="M397.71,12.61c.99-.16,3.4.65,3.95,3.37-1.52-.3-3.78-1.43-3.95-3.37Z"></path>
      <path class="st5" d="M395.85,8.97c.71-.15,3.26.37,4.33,3.15-1.51-.04-3.57-.56-4.33-3.15Z"></path>
      <path class="st5" d="M398.39,8.64c-1.36.08-4.12-1.15-4.73-3.02,1.28-.26,3.76,1.04,4.73,3.02Z"></path>
      <path class="st5" d="M400.52,30.77c.82-2.44,3.15-4.43,4.67-4.58-.16,3.77-3.11,4.66-4.67,4.58Z"></path>
      <path class="st5" d="M398.44,34.29c-.92-1.36-1.66-4.15-.2-5.52.83.57,2.1,2.77.2,5.52Z"></path>
      <path class="st5" d="M398.1,35.07c.87-1.24,3.28-3.59,5.58-3.63-1.29,3.65-4.68,3.85-5.58,3.63Z"></path>
      <path class="st5" d="M395.64,37.84c-.65-1.54-.89-3.86.99-5.45.66.67,1.51,3-.99,5.45Z"></path>
      <path class="st5" d="M395.23,38.52c1.12-1.07,4.49-3.42,6.73-2.99-1.94,3.83-5.91,3.35-6.73,2.99Z"></path>
      <path class="st5" d="M391.7,41.18c-.62-2.08.86-3.95,2.19-5.11,1.13,1.8-.22,3.87-2.19,5.11Z"></path>
      <path class="st5" d="M397.71,39.37c-3.07,3.56-5.38,2.97-5.87,2.07,1.31-.85,4.48-2.78,5.87-2.07Z"></path>
      <path class="st5" d="M405.1,20.75c1.85,3.13-1.57,4.72-3.12,5.58.13-.94,1.56-4.82,3.12-5.58Z"></path>
      <path class="st5" d="M404.48,15.38c1.5,2.55.03,5.02-2.09,6.09-.04-1.6.36-4.88,2.09-6.09Z"></path>
      <path class="st5" d="M402.01,16.59c-.31-1.28-.96-3.49.34-5.43,1.94,1.98.77,4.64-.34,5.43Z"></path>
      <path class="st5" d="M400.6,12.59c-.56-1.27-1.08-4.11-.12-5.11,2.47,2.37.8,4.46.12,5.11Z"></path>
      <path class="st5" d="M399.04,9.41c-.68-1.07-2.19-3.61-1.51-5.93,2.92,2.95,1.94,5.34,1.51,5.93Z"></path>
    </g>
    <g class="st1">
      <text class="st4" transform="translate(339.67 49)"><tspan x="0" y="0">F</tspan></text>
      <text class="st2" transform="translate(343.97 49)"><tspan x="0" y="0">ePI 2024</tspan></text>
    </g>
  </g>
</svg>